<svg width="184" height="72" viewBox="0 0 184 72" fill="none" xmlns="http://www.w3.org/2000/svg">
<path d="M20.3579 56.9063H12.4363V24.6804H0.498535V16.6169H32.2679V24.6804H20.3579V56.9063ZM44.5935 18.6398C44.5935 19.3515 44.4551 20.0165 44.1779 20.6346C43.9196 21.2527 43.5596 21.7959 43.0979 22.2642C42.6361 22.7137 42.0916 23.0789 41.4638 23.3599C40.8542 23.6221 40.1988 23.7532 39.4969 23.7532C38.7954 23.7532 38.1306 23.6221 37.5028 23.3599C36.8935 23.0789 36.358 22.7137 35.8964 22.2642C35.4532 21.7959 35.0931 21.2527 34.8161 20.6346C34.5576 20.0165 34.4284 19.3515 34.4284 18.6398C34.4284 17.9468 34.5576 17.2912 34.8161 16.6731C35.0931 16.0362 35.4532 15.4931 35.8964 15.0435C36.358 14.5752 36.8935 14.21 37.5028 13.9478C38.1306 13.6668 38.7954 13.5264 39.4969 13.5264C40.1988 13.5264 40.8542 13.6668 41.4638 13.9478C42.0916 14.21 42.6361 14.5752 43.0979 15.0435C43.5596 15.4931 43.9196 16.0362 44.1779 16.6731C44.4551 17.2912 44.5935 17.9468 44.5935 18.6398ZM43.2919 56.9063H35.6748V26.8157H43.2919V56.9063ZM75.0058 32.8001L69.466 38.4473C69.1892 37.6606 68.8106 36.9582 68.3303 36.3401C67.8504 35.7033 67.3059 35.1695 66.6963 34.7387C66.1056 34.3079 65.4593 33.9801 64.7574 33.7553C64.0559 33.5306 63.3355 33.4182 62.5969 33.4182C61.563 33.4182 60.5843 33.6336 59.6612 34.0644C58.7563 34.4952 57.9621 35.1039 57.2791 35.8906C56.6143 36.6586 56.0879 37.5764 55.7003 38.6442C55.3127 39.7117 55.1187 40.8917 55.1187 42.184C55.1187 43.2328 55.3127 44.2164 55.7003 45.1343C56.0879 46.0519 56.6143 46.8575 57.2791 47.5502C57.9621 48.2434 58.7563 48.7866 59.6612 49.1798C60.5843 49.5733 61.563 49.7698 62.5969 49.7698C63.3355 49.7698 64.0465 49.667 64.7298 49.461C65.4132 49.255 66.05 48.9646 66.6411 48.5898C67.2503 48.1966 67.7858 47.7282 68.2475 47.185C68.7274 46.6231 69.1154 46.0051 69.4108 45.3307L74.9502 50.9781C74.2487 51.9897 73.436 52.898 72.5129 53.7032C71.6079 54.5088 70.6201 55.1923 69.5492 55.7543C68.4967 56.3163 67.3796 56.7379 66.1979 57.0187C65.0346 57.3183 63.8343 57.4682 62.5969 57.4682C60.5106 57.4682 58.5441 57.0747 56.6975 56.2883C54.8695 55.4827 53.263 54.3872 51.8782 53.0008C50.5115 51.6149 49.4314 49.9945 48.6373 48.1402C47.8435 46.2859 47.4464 44.3007 47.4464 42.184C47.4464 39.8801 47.8435 37.7262 48.6373 35.722C49.4314 33.7179 50.5115 31.9759 51.8782 30.4962C53.263 28.9978 54.8695 27.8177 56.6975 26.9561C58.5441 26.0945 60.5106 25.6637 62.5969 25.6637C63.8343 25.6637 65.0437 25.8229 66.2255 26.1414C67.4258 26.4598 68.5614 26.9281 69.6324 27.5462C70.7219 28.1455 71.7187 28.8854 72.6237 29.7657C73.5468 30.6461 74.3409 31.6575 75.0058 32.8001ZM86.3342 56.9063H78.7171V14.8468H86.3342V41.3693L97.607 26.8719H106.304L96.4717 39.4025L106.304 56.9063H97.607L91.5967 45.9771L86.3342 53.0572V56.9063ZM118.214 18.6398C118.214 19.3515 118.076 20.0165 117.799 20.6346C117.54 21.2527 117.18 21.7959 116.719 22.2642C116.257 22.7137 115.712 23.0789 115.084 23.3599C114.475 23.6221 113.82 23.7532 113.118 23.7532C112.416 23.7532 111.752 23.6221 111.124 23.3599C110.514 23.0789 109.979 22.7137 109.517 22.2642C109.074 21.7959 108.714 21.2527 108.437 20.6346C108.179 20.0165 108.049 19.3515 108.049 18.6398C108.049 17.9468 108.179 17.2912 108.437 16.6731C108.714 16.0362 109.074 15.4931 109.517 15.0435C109.979 14.5752 110.514 14.21 111.124 13.9478C111.752 13.6668 112.416 13.5264 113.118 13.5264C113.82 13.5264 114.475 13.6668 115.084 13.9478C115.712 14.21 116.257 14.5752 116.719 15.0435C117.18 15.4931 117.54 16.0362 117.799 16.6731C118.076 17.2912 118.214 17.9468 118.214 18.6398ZM116.912 56.9063H109.296V26.8157H116.912V56.9063ZM137.575 56.9063C135.747 56.9063 134.03 56.5599 132.423 55.8667C130.817 55.1551 129.404 54.1904 128.186 52.9728C126.985 51.7365 126.034 50.3037 125.333 48.6742C124.649 47.0447 124.308 45.3027 124.308 43.4484V34.5139H120.624V26.8719H124.308V14.8468H131.842V26.8719H143.309V34.5139H131.842V43.4484C131.842 44.2539 131.989 45.0123 132.285 45.7243C132.58 46.4171 132.986 47.0259 133.503 47.5502C134.021 48.075 134.63 48.4962 135.331 48.8146C136.033 49.1146 136.781 49.2642 137.575 49.2642H143.309V56.9063H137.575ZM170.729 56.9063H145.995L158.487 34.5139H145.995V26.8719H170.729L158.238 49.2642H170.729V56.9063Z" fill="#1D4ED8"/>
<path d="M180.672 33.6011C180.666 33.5977 180.659 33.5957 180.653 33.5927L178.18 32.1431C178.026 32.3211 177.816 32.4394 177.585 32.478C177.355 32.5165 177.118 32.4728 176.916 32.3544C176.714 32.2358 176.558 32.0498 176.475 31.8279C176.393 31.6061 176.389 31.3622 176.464 31.1377L173.973 29.6781C173.907 29.639 173.827 29.6285 173.753 29.6487C173.678 29.669 173.614 29.7184 173.576 29.7862L166.181 42.7795L166.18 42.7803C166.161 42.8137 166.148 42.8509 166.144 42.8893C166.139 42.928 166.141 42.9668 166.151 43.0043C166.161 43.0419 166.178 43.0768 166.201 43.1079C166.224 43.1386 166.254 43.1643 166.287 43.1839L168.779 44.6416C168.933 44.4639 169.143 44.3458 169.373 44.3071C169.603 44.2687 169.84 44.3124 170.042 44.4306C170.244 44.5491 170.4 44.7348 170.482 44.9561C170.565 45.1774 170.569 45.421 170.495 45.6454L172.955 47.0843C172.965 47.092 172.974 47.1001 172.985 47.1066C173.018 47.1261 173.055 47.1384 173.093 47.1438C173.131 47.1488 173.169 47.1461 173.206 47.1361C173.243 47.1261 173.277 47.1089 173.308 47.0851C173.338 47.0617 173.363 47.0322 173.383 46.9984V46.9988L180.778 34.0046C180.797 33.971 180.81 33.9339 180.815 33.8954C180.82 33.857 180.818 33.8179 180.807 33.7804C180.797 33.743 180.78 33.7079 180.757 33.6771C180.734 33.6463 180.705 33.6205 180.672 33.6011ZM178.551 34.6097L172.786 44.739C172.767 44.7727 172.741 44.8023 172.711 44.8257C172.681 44.8495 172.646 44.8667 172.609 44.8767C172.572 44.8867 172.534 44.8894 172.496 44.8844C172.458 44.8794 172.421 44.8667 172.388 44.8472L168.514 42.5782C168.481 42.5586 168.452 42.5329 168.429 42.5022C168.405 42.4715 168.388 42.4362 168.378 42.399C168.369 42.3614 168.366 42.3223 168.371 42.2839C168.376 42.2456 168.388 42.2084 168.408 42.175L174.173 32.0456C174.211 31.9779 174.275 31.9284 174.349 31.9082C174.424 31.8879 174.503 31.8985 174.57 31.9376L178.445 34.2068C178.478 34.2261 178.507 34.2519 178.53 34.2826C178.553 34.3134 178.57 34.3484 178.58 34.3859C178.59 34.4233 178.593 34.4623 178.588 34.5008C178.583 34.5392 178.57 34.5762 178.551 34.6097Z" fill="#5F2EEA"/>
<path d="M175.446 38.1215L174.218 37.89L174.046 36.6999C174.043 36.6824 174.035 36.666 174.023 36.6533C174.011 36.6405 173.995 36.6318 173.978 36.6285C173.961 36.6251 173.943 36.6273 173.927 36.6347C173.911 36.642 173.898 36.6542 173.889 36.6696L173.294 37.7152L172.097 37.4895C172.08 37.4863 172.063 37.4886 172.047 37.496C172.031 37.5034 172.018 37.5155 172.009 37.5309C172 37.5462 171.996 37.5638 171.998 37.5815C171.999 37.5991 172.006 37.6158 172.018 37.6293L172.809 38.568L172.213 39.6133C172.205 39.629 172.201 39.6467 172.203 39.6643C172.204 39.6823 172.212 39.6992 172.223 39.7126C172.234 39.7261 172.25 39.7353 172.267 39.7395C172.284 39.7437 172.302 39.7426 172.318 39.736L173.42 39.2926L174.231 40.2551C174.243 40.2681 174.258 40.2777 174.275 40.2819C174.291 40.2861 174.309 40.285 174.325 40.2788C174.342 40.2727 174.355 40.2616 174.365 40.247C174.375 40.2324 174.38 40.2152 174.38 40.1975L174.359 38.9071L175.471 38.2803C175.486 38.2716 175.499 38.2584 175.506 38.2425C175.514 38.2266 175.517 38.2088 175.514 38.1914C175.511 38.1741 175.503 38.1581 175.491 38.1456C175.478 38.1331 175.463 38.1247 175.446 38.1215Z" fill="#5F2EEA"/>
</svg>
