<svg width="18" height="18" viewBox="0 0 18 18" fill="none" xmlns="http://www.w3.org/2000/svg">
<path d="M12.9677 6.98252C12.8983 6.91299 12.8159 6.85783 12.7251 6.82019C12.6344 6.78256 12.5371 6.76318 12.4389 6.76318C12.3407 6.76318 12.2434 6.78256 12.1527 6.82019C12.062 6.85783 11.9796 6.91299 11.9102 6.98252L9.00017 9.89252L6.09017 6.98252C5.94993 6.84228 5.75974 6.7635 5.56142 6.7635C5.3631 6.7635 5.1729 6.84228 5.03267 6.98252C4.89243 7.12275 4.81365 7.31295 4.81365 7.51127C4.81365 7.70959 4.89243 7.89978 5.03267 8.04002L8.47517 11.4825C8.54455 11.552 8.62697 11.6072 8.7177 11.6448C8.80843 11.6825 8.90569 11.7018 9.00392 11.7018C9.10214 11.7018 9.1994 11.6825 9.29013 11.6448C9.38086 11.6072 9.46328 11.552 9.53267 11.4825L12.9752 8.04002C13.2602 7.75502 13.2602 7.27502 12.9677 6.98252Z" fill="#414141"/>
</svg>
