<svg width="296" height="173" viewBox="0 0 296 173" fill="none" xmlns="http://www.w3.org/2000/svg">
<rect width="296" height="173" fill="#F5F5F5"/>
<rect width="1366" height="1260" transform="translate(-86 -618)" fill="#F5F6F8"/>
<g filter="url(#filter0_d_0_1)">
<rect x="-16" y="-458" width="328" height="783" rx="24" fill="white"/>
</g>
<rect x="31" y="21" width="234" height="118" rx="16" fill="#1D4ED8" fill-opacity="0.5"/>
<mask id="mask0_0_1" style="mask-type:alpha" maskUnits="userSpaceOnUse" x="24" y="8" width="248" height="125">
<rect x="24" y="8" width="248" height="125" rx="16" fill="url(#paint0_linear_0_1)"/>
</mask>
<g mask="url(#mask0_0_1)">
<g filter="url(#filter1_d_0_1)">
<rect x="24" y="8" width="248" height="125" rx="16" fill="#1D4ED8"/>
</g>
<circle cx="237" cy="10" r="61" fill="white" fill-opacity="0.3"/>
<circle cx="252" cy="39" r="61" fill="white" fill-opacity="0.3"/>
</g>
<g clip-path="url(#clip0_0_1)">
<path d="M247.694 60.7623C247.365 60.6757 247.062 60.5115 246.81 60.2836L237.81 51.9982L225.874 54.6737C225.486 54.7613 225.081 54.7384 224.706 54.6076C224.33 54.4767 223.999 54.2431 223.75 53.9334C223.5 53.6237 223.343 53.2502 223.295 52.8555C223.248 52.4607 223.312 52.0606 223.48 51.7004L228.629 40.6943L222.373 30.218C222.179 29.884 222.081 29.5037 222.087 29.1178C222.094 28.732 222.205 28.3552 222.409 28.0279C222.626 27.695 222.932 27.4295 223.292 27.2615C223.652 27.0935 224.052 27.0298 224.446 27.0776L236.602 28.5089L244.576 19.3596C244.837 19.0576 245.178 18.8352 245.559 18.718C245.941 18.6008 246.348 18.5934 246.733 18.6967C247.119 18.8 247.468 19.0099 247.74 19.3022C248.011 19.5945 248.195 19.9575 248.27 20.3496L250.668 32.2558L261.911 37.0944C262.277 37.2502 262.591 37.5053 262.819 37.8308C263.047 38.1562 263.179 38.539 263.2 38.9357C263.213 39.3213 263.121 39.7034 262.934 40.0408C262.747 40.3782 262.471 40.6582 262.137 40.8508L251.48 46.7952L250.436 58.9013C250.407 59.3057 250.262 59.6932 250.019 60.0179C249.776 60.3426 249.445 60.5911 249.065 60.7339C248.624 60.8947 248.141 60.9048 247.694 60.7623Z" fill="url(#paint1_linear_0_1)"/>
</g>
<path d="M49.72 98.216C50.712 98.504 51.472 99 52 99.704C52.528 100.408 52.792 101.296 52.792 102.368C52.792 103.856 52.264 105.032 51.208 105.896C50.168 106.744 48.752 107.168 46.96 107.168C45.824 107.168 44.736 106.992 43.696 106.64C42.672 106.272 41.816 105.76 41.128 105.104L42.016 103.28C43.552 104.528 45.176 105.152 46.888 105.152C49.224 105.152 50.392 104.168 50.392 102.2C50.392 101.24 50.088 100.528 49.48 100.064C48.872 99.584 47.952 99.344 46.72 99.344H44.632V97.328H46.336C47.52 97.328 48.424 97.08 49.048 96.584C49.672 96.088 49.984 95.368 49.984 94.424C49.984 93.56 49.72 92.896 49.192 92.432C48.68 91.968 47.952 91.736 47.008 91.736C45.408 91.736 43.824 92.36 42.256 93.608L41.368 91.784C42.04 91.144 42.888 90.64 43.912 90.272C44.952 89.904 46.024 89.72 47.128 89.72C48.728 89.72 50 90.12 50.944 90.92C51.904 91.704 52.384 92.768 52.384 94.112C52.384 95.088 52.152 95.936 51.688 96.656C51.224 97.376 50.568 97.896 49.72 98.216ZM68.2206 104.96V107H57.0126V105.152L62.8926 98.696C63.6446 97.864 64.1886 97.112 64.5246 96.44C64.8766 95.752 65.0526 95.072 65.0526 94.4C65.0526 93.536 64.8046 92.88 64.3086 92.432C63.8126 91.968 63.0926 91.736 62.1486 91.736C60.5646 91.736 58.9806 92.36 57.3966 93.608L56.5086 91.784C57.1806 91.16 58.0366 90.664 59.0766 90.296C60.1166 89.912 61.1646 89.72 62.2206 89.72C63.8526 89.72 65.1406 90.128 66.0846 90.944C67.0446 91.76 67.5246 92.864 67.5246 94.256C67.5246 95.248 67.3086 96.192 66.8766 97.088C66.4446 97.968 65.7246 98.952 64.7166 100.04L60.1566 104.96H68.2206ZM77.4813 107.192C75.4973 107.192 73.9853 106.448 72.9453 104.96C71.9053 103.472 71.3853 101.304 71.3853 98.456C71.3853 95.608 71.9053 93.44 72.9453 91.952C73.9853 90.464 75.4973 89.72 77.4813 89.72C79.4653 89.72 80.9773 90.464 82.0173 91.952C83.0573 93.424 83.5773 95.584 83.5773 98.432C83.5773 101.296 83.0573 103.472 82.0173 104.96C80.9773 106.448 79.4653 107.192 77.4813 107.192ZM77.4813 105.2C78.7133 105.2 79.6173 104.656 80.1933 103.568C80.7853 102.464 81.0813 100.752 81.0813 98.432C81.0813 96.112 80.7933 94.416 80.2173 93.344C79.6413 92.272 78.7293 91.736 77.4813 91.736C76.2493 91.736 75.3373 92.28 74.7453 93.368C74.1693 94.44 73.8813 96.128 73.8813 98.432C73.8813 100.752 74.1693 102.464 74.7453 103.568C75.3373 104.656 76.2493 105.2 77.4813 105.2Z" fill="white"/>
<path d="M53.878 35.184V48H51.826V40.044L48.424 48H46.894L43.474 40.134V48H41.422V35.184H43.258L47.668 45.21L52.042 35.184H53.878ZM61.389 48.144C60.465 48.144 59.649 47.952 58.941 47.568C58.245 47.184 57.705 46.638 57.321 45.93C56.949 45.21 56.763 44.37 56.763 43.41C56.763 42.45 56.949 41.616 57.321 40.908C57.705 40.188 58.245 39.636 58.941 39.252C59.649 38.868 60.465 38.676 61.389 38.676C62.301 38.676 63.105 38.868 63.801 39.252C64.497 39.636 65.031 40.188 65.403 40.908C65.787 41.616 65.979 42.45 65.979 43.41C65.979 44.37 65.787 45.21 65.403 45.93C65.031 46.638 64.497 47.184 63.801 47.568C63.105 47.952 62.301 48.144 61.389 48.144ZM61.371 46.38C62.139 46.38 62.721 46.134 63.117 45.642C63.525 45.138 63.729 44.394 63.729 43.41C63.729 42.438 63.525 41.7 63.117 41.196C62.709 40.68 62.133 40.422 61.389 40.422C60.633 40.422 60.051 40.68 59.643 41.196C59.235 41.7 59.031 42.438 59.031 43.41C59.031 44.394 59.229 45.138 59.625 45.642C60.033 46.134 60.615 46.38 61.371 46.38ZM77.1151 38.928L73.1371 48H71.1751L67.2511 38.928H69.6091L72.2191 45.444L74.8831 38.928H77.1151ZM79.0345 38.91H81.2665V48H79.0345V38.91ZM81.3925 34.788V37.002H78.8905V34.788H81.3925ZM92.4339 43.572H86.1699C86.2179 44.544 86.4579 45.264 86.8899 45.732C87.3339 46.188 87.9879 46.416 88.8519 46.416C89.8479 46.416 90.7719 46.092 91.6239 45.444L92.2719 46.992C91.8399 47.34 91.3059 47.622 90.6699 47.838C90.0459 48.042 89.4099 48.144 88.7619 48.144C87.2739 48.144 86.1039 47.724 85.2519 46.884C84.3999 46.044 83.9739 44.892 83.9739 43.428C83.9739 42.504 84.1599 41.682 84.5319 40.962C84.9039 40.242 85.4259 39.684 86.0979 39.288C86.7699 38.88 87.5319 38.676 88.3839 38.676C89.6319 38.676 90.6159 39.084 91.3359 39.9C92.0679 40.704 92.4339 41.814 92.4339 43.23V43.572ZM88.4379 40.296C87.8379 40.296 87.3459 40.476 86.9619 40.836C86.5899 41.184 86.3499 41.694 86.2419 42.366H90.4719C90.3999 41.682 90.1899 41.166 89.8419 40.818C89.5059 40.47 89.0379 40.296 88.4379 40.296ZM103.873 38.91V47.712C103.873 49.128 103.483 50.202 102.703 50.934C101.923 51.666 100.777 52.032 99.2652 52.032C97.8612 52.032 96.6252 51.738 95.5572 51.15L95.9172 49.44C97.0212 50.016 98.1192 50.304 99.2112 50.304C100.831 50.304 101.641 49.5 101.641 47.892V46.092C101.365 46.584 100.963 46.986 100.435 47.298C99.9072 47.598 99.3132 47.748 98.6532 47.748C97.8612 47.748 97.1532 47.562 96.5292 47.19C95.9172 46.806 95.4372 46.272 95.0892 45.588C94.7532 44.892 94.5852 44.1 94.5852 43.212C94.5852 42.324 94.7532 41.538 95.0892 40.854C95.4372 40.158 95.9172 39.624 96.5292 39.252C97.1532 38.868 97.8612 38.676 98.6532 38.676C99.3252 38.676 99.9192 38.82 100.435 39.108C100.963 39.384 101.365 39.774 101.641 40.278V38.91H103.873ZM99.2472 45.984C99.9912 45.984 100.573 45.738 100.993 45.246C101.425 44.754 101.641 44.076 101.641 43.212C101.641 42.348 101.431 41.67 101.011 41.178C100.591 40.686 100.003 40.44 99.2472 40.44C98.5032 40.44 97.9152 40.686 97.4832 41.178C97.0632 41.67 96.8532 42.348 96.8532 43.212C96.8532 44.076 97.0632 44.754 97.4832 45.246C97.9152 45.738 98.5032 45.984 99.2472 45.984ZM111.176 48.144C110.252 48.144 109.436 47.952 108.728 47.568C108.032 47.184 107.492 46.638 107.108 45.93C106.736 45.21 106.55 44.37 106.55 43.41C106.55 42.45 106.736 41.616 107.108 40.908C107.492 40.188 108.032 39.636 108.728 39.252C109.436 38.868 110.252 38.676 111.176 38.676C112.088 38.676 112.892 38.868 113.588 39.252C114.284 39.636 114.818 40.188 115.19 40.908C115.574 41.616 115.766 42.45 115.766 43.41C115.766 44.37 115.574 45.21 115.19 45.93C114.818 46.638 114.284 47.184 113.588 47.568C112.892 47.952 112.088 48.144 111.176 48.144ZM111.158 46.38C111.926 46.38 112.508 46.134 112.904 45.642C113.312 45.138 113.516 44.394 113.516 43.41C113.516 42.438 113.312 41.7 112.904 41.196C112.496 40.68 111.92 40.422 111.176 40.422C110.42 40.422 109.838 40.68 109.43 41.196C109.022 41.7 108.818 42.438 108.818 43.41C108.818 44.394 109.016 45.138 109.412 45.642C109.82 46.134 110.402 46.38 111.158 46.38ZM126.412 43.572H120.148C120.196 44.544 120.436 45.264 120.868 45.732C121.312 46.188 121.966 46.416 122.83 46.416C123.826 46.416 124.75 46.092 125.602 45.444L126.25 46.992C125.818 47.34 125.284 47.622 124.648 47.838C124.024 48.042 123.388 48.144 122.74 48.144C121.252 48.144 120.082 47.724 119.23 46.884C118.378 46.044 117.952 44.892 117.952 43.428C117.952 42.504 118.138 41.682 118.51 40.962C118.882 40.242 119.404 39.684 120.076 39.288C120.748 38.88 121.51 38.676 122.362 38.676C123.61 38.676 124.594 39.084 125.314 39.9C126.046 40.704 126.412 41.814 126.412 43.23V43.572ZM122.416 40.296C121.816 40.296 121.324 40.476 120.94 40.836C120.568 41.184 120.328 41.694 120.22 42.366H124.45C124.378 41.682 124.168 41.166 123.82 40.818C123.484 40.47 123.016 40.296 122.416 40.296ZM133.964 38.694C134.312 38.694 134.612 38.742 134.864 38.838L134.846 40.89C134.462 40.734 134.066 40.656 133.658 40.656C132.89 40.656 132.302 40.878 131.894 41.322C131.498 41.766 131.3 42.354 131.3 43.086V48H129.068V41.484C129.068 40.524 129.02 39.666 128.924 38.91H131.03L131.21 40.512C131.438 39.924 131.798 39.474 132.29 39.162C132.782 38.85 133.34 38.694 133.964 38.694ZM140.109 48.144C138.465 48.144 137.157 47.76 136.185 46.992L136.815 45.408C137.787 46.128 138.897 46.488 140.145 46.488C140.685 46.488 141.099 46.398 141.387 46.218C141.687 46.038 141.837 45.786 141.837 45.462C141.837 45.186 141.735 44.97 141.531 44.814C141.327 44.646 140.979 44.502 140.487 44.382L138.975 44.04C137.319 43.68 136.491 42.834 136.491 41.502C136.491 40.95 136.647 40.464 136.959 40.044C137.271 39.612 137.709 39.276 138.273 39.036C138.837 38.796 139.491 38.676 140.235 38.676C140.883 38.676 141.507 38.778 142.107 38.982C142.707 39.174 143.235 39.456 143.691 39.828L143.025 41.358C142.113 40.686 141.177 40.35 140.217 40.35C139.701 40.35 139.299 40.446 139.011 40.638C138.723 40.83 138.579 41.094 138.579 41.43C138.579 41.694 138.663 41.904 138.831 42.06C139.011 42.216 139.311 42.348 139.731 42.456L141.279 42.798C142.179 43.002 142.833 43.32 143.241 43.752C143.661 44.172 143.871 44.724 143.871 45.408C143.871 46.248 143.535 46.914 142.863 47.406C142.191 47.898 141.273 48.144 140.109 48.144Z" fill="white"/>
<path d="M92.29 101.85C92.73 101.85 93.12 101.96 93.46 102.18C93.8 102.4 94.0633 102.71 94.25 103.11C94.4367 103.503 94.53 103.96 94.53 104.48C94.53 105 94.4367 105.457 94.25 105.85C94.0633 106.237 93.8 106.537 93.46 106.75C93.1267 106.963 92.7367 107.07 92.29 107.07C91.8967 107.07 91.5533 106.983 91.26 106.81C90.9667 106.637 90.7433 106.39 90.59 106.07V109.16H89.78V103.38C89.78 102.86 89.7533 102.39 89.7 101.97H90.47L90.55 102.94C90.69 102.593 90.91 102.327 91.21 102.14C91.5167 101.947 91.8767 101.85 92.29 101.85ZM92.14 106.4C92.6333 106.4 93.0133 106.233 93.28 105.9C93.5533 105.567 93.69 105.093 93.69 104.48C93.69 103.867 93.5533 103.39 93.28 103.05C93.0067 102.703 92.6267 102.53 92.14 102.53C91.64 102.53 91.2567 102.697 90.99 103.03C90.7233 103.363 90.59 103.84 90.59 104.46C90.59 105.08 90.7233 105.56 90.99 105.9C91.2567 106.233 91.64 106.4 92.14 106.4ZM98.6061 107.07C98.1328 107.07 97.7161 106.963 97.3561 106.75C96.9961 106.537 96.7161 106.233 96.5161 105.84C96.3228 105.447 96.2261 104.987 96.2261 104.46C96.2261 103.933 96.3228 103.473 96.5161 103.08C96.7161 102.687 96.9961 102.383 97.3561 102.17C97.7161 101.957 98.1328 101.85 98.6061 101.85C99.0794 101.85 99.4961 101.957 99.8561 102.17C100.216 102.383 100.493 102.687 100.686 103.08C100.886 103.473 100.986 103.933 100.986 104.46C100.986 104.987 100.886 105.447 100.686 105.84C100.493 106.233 100.216 106.537 99.8561 106.75C99.4961 106.963 99.0794 107.07 98.6061 107.07ZM98.6061 106.4C99.1061 106.4 99.4894 106.237 99.7561 105.91C100.023 105.577 100.156 105.093 100.156 104.46C100.156 103.847 100.019 103.373 99.7461 103.04C99.4728 102.7 99.0928 102.53 98.6061 102.53C98.1128 102.53 97.7294 102.7 97.4561 103.04C97.1828 103.373 97.0461 103.847 97.0461 104.46C97.0461 105.093 97.1794 105.577 97.4461 105.91C97.7194 106.237 98.1061 106.4 98.6061 106.4ZM102.999 101.97H103.809V107H102.999V101.97ZM103.909 99.84V100.76H102.919V99.84H103.909ZM108.642 101.85C109.848 101.85 110.452 102.513 110.452 103.84V107H109.642V103.88C109.642 103.413 109.548 103.073 109.362 102.86C109.175 102.64 108.882 102.53 108.482 102.53C108.015 102.53 107.642 102.673 107.362 102.96C107.082 103.247 106.942 103.633 106.942 104.12V107H106.132V103.38C106.132 102.86 106.105 102.39 106.052 101.97H106.822L106.902 102.87C107.055 102.543 107.285 102.293 107.592 102.12C107.898 101.94 108.248 101.85 108.642 101.85ZM113.811 102.61V105.36C113.811 105.733 113.888 105.997 114.041 106.15C114.195 106.297 114.411 106.37 114.691 106.37C114.878 106.37 115.058 106.34 115.231 106.28V106.97C115.025 107.037 114.791 107.07 114.531 107.07C114.051 107.07 113.675 106.937 113.401 106.67C113.135 106.397 113.001 105.997 113.001 105.47V102.61H112.021V101.97H113.001V100.68L113.811 100.39V101.97H115.251V102.61H113.811ZM118.677 107.07C117.831 107.07 117.161 106.853 116.667 106.42L116.937 105.82C117.211 106.033 117.487 106.187 117.767 106.28C118.047 106.373 118.361 106.42 118.707 106.42C119.087 106.42 119.374 106.357 119.567 106.23C119.767 106.097 119.867 105.907 119.867 105.66C119.867 105.46 119.801 105.3 119.667 105.18C119.534 105.06 119.314 104.967 119.007 104.9L118.157 104.7C117.737 104.607 117.411 104.44 117.177 104.2C116.951 103.96 116.837 103.673 116.837 103.34C116.837 102.9 117.014 102.543 117.367 102.27C117.721 101.99 118.187 101.85 118.767 101.85C119.121 101.85 119.454 101.907 119.767 102.02C120.081 102.133 120.344 102.297 120.557 102.51L120.287 103.1C119.814 102.707 119.307 102.51 118.767 102.51C118.407 102.51 118.127 102.58 117.927 102.72C117.734 102.853 117.637 103.043 117.637 103.29C117.637 103.497 117.697 103.66 117.817 103.78C117.944 103.9 118.144 103.993 118.417 104.06L119.267 104.27C119.734 104.377 120.081 104.543 120.307 104.77C120.534 104.99 120.647 105.28 120.647 105.64C120.647 106.073 120.471 106.42 120.117 106.68C119.764 106.94 119.284 107.07 118.677 107.07Z" fill="white"/>
<defs>
<filter id="filter0_d_0_1" x="-48" y="-482" width="392" height="847" filterUnits="userSpaceOnUse" color-interpolation-filters="sRGB">
<feFlood flood-opacity="0" result="BackgroundImageFix"/>
<feColorMatrix in="SourceAlpha" type="matrix" values="0 0 0 0 0 0 0 0 0 0 0 0 0 0 0 0 0 0 127 0" result="hardAlpha"/>
<feOffset dy="8"/>
<feGaussianBlur stdDeviation="16"/>
<feColorMatrix type="matrix" values="0 0 0 0 0.729412 0 0 0 0 0.729412 0 0 0 0 0.729412 0 0 0 0.08 0"/>
<feBlend mode="normal" in2="BackgroundImageFix" result="effect1_dropShadow_0_1"/>
<feBlend mode="normal" in="SourceGraphic" in2="effect1_dropShadow_0_1" result="shape"/>
</filter>
<filter id="filter1_d_0_1" x="-8" y="-16" width="312" height="189" filterUnits="userSpaceOnUse" color-interpolation-filters="sRGB">
<feFlood flood-opacity="0" result="BackgroundImageFix"/>
<feColorMatrix in="SourceAlpha" type="matrix" values="0 0 0 0 0 0 0 0 0 0 0 0 0 0 0 0 0 0 127 0" result="hardAlpha"/>
<feOffset dy="8"/>
<feGaussianBlur stdDeviation="16"/>
<feColorMatrix type="matrix" values="0 0 0 0 0.372549 0 0 0 0 0.180392 0 0 0 0 0.917647 0 0 0 1 0"/>
<feBlend mode="normal" in2="BackgroundImageFix" result="effect1_dropShadow_0_1"/>
<feBlend mode="normal" in="SourceGraphic" in2="effect1_dropShadow_0_1" result="shape"/>
</filter>
<linearGradient id="paint0_linear_0_1" x1="186.5" y1="50.542" x2="102.223" y2="91.0146" gradientUnits="userSpaceOnUse">
<stop stop-color="#622BFD"/>
<stop offset="0.487021" stop-color="#5425DC"/>
<stop offset="1" stop-color="#5022D5"/>
</linearGradient>
<linearGradient id="paint1_linear_0_1" x1="246.764" y1="18.7049" x2="236.309" y2="57.7227" gradientUnits="userSpaceOnUse">
<stop stop-color="#FFF6DC"/>
<stop offset="1" stop-color="#FFC107"/>
</linearGradient>
<clipPath id="clip0_0_1">
<rect width="51" height="51" fill="white" transform="translate(223.199 8) rotate(15)"/>
</clipPath>
</defs>
</svg>
