<svg width="48" height="47" viewBox="0 0 48 47" fill="none" xmlns="http://www.w3.org/2000/svg">
<circle cx="24" cy="23.5" r="23.5" fill="#A0A3BD"/>
<path d="M20.86 29V27.896L24.796 23.768C25.308 23.2453 25.6867 22.744 25.932 22.264C26.188 21.784 26.316 21.288 26.316 20.776C26.316 20.1467 26.1187 19.672 25.724 19.352C25.34 19.0213 24.7747 18.856 24.028 18.856C23.452 18.856 22.908 18.9627 22.396 19.176C21.8947 19.3787 21.4147 19.6933 20.956 20.12L20.428 18.984C20.8653 18.5573 21.4147 18.216 22.076 17.96C22.748 17.704 23.452 17.576 24.188 17.576C24.956 17.576 25.6067 17.6987 26.14 17.944C26.684 18.1787 27.0947 18.5253 27.372 18.984C27.66 19.432 27.804 19.9813 27.804 20.632C27.804 21.3467 27.628 22.0293 27.276 22.68C26.9347 23.32 26.428 23.9813 25.756 24.664L22.316 28.152V27.736H28.268V29H20.86Z" fill="white"/>
</svg>
