<svg width="47" height="47" viewBox="0 0 47 47" fill="none" xmlns="http://www.w3.org/2000/svg">
<circle cx="23.5" cy="23.5" r="23.5" fill="#A0A3BD"/>
<path d="M23.72 29.144C22.952 29.144 22.216 29.0267 21.512 28.792C20.8187 28.5573 20.2373 28.2267 19.768 27.8L20.296 26.648C20.8187 27.0747 21.3573 27.384 21.912 27.576C22.4667 27.768 23.0533 27.864 23.672 27.864C24.4933 27.864 25.1173 27.6933 25.544 27.352C25.9707 27 26.184 26.4987 26.184 25.848C26.184 25.208 25.9653 24.7227 25.528 24.392C25.1013 24.0613 24.472 23.896 23.64 23.896H21.912V22.664H23.528C24.232 22.664 24.7973 22.4827 25.224 22.12C25.6507 21.7573 25.864 21.2613 25.864 20.632C25.864 20.056 25.6667 19.6187 25.272 19.32C24.888 19.0107 24.3387 18.856 23.624 18.856C23.016 18.856 22.456 18.9627 21.944 19.176C21.432 19.3787 20.9467 19.6933 20.488 20.12L19.96 18.984C20.408 18.536 20.9627 18.1893 21.624 17.944C22.2853 17.6987 22.984 17.576 23.72 17.576C24.84 17.576 25.72 17.832 26.36 18.344C27 18.856 27.32 19.5707 27.32 20.488C27.32 21.1813 27.1227 21.7787 26.728 22.28C26.344 22.7707 25.816 23.096 25.144 23.256V23.08C25.9333 23.2187 26.5467 23.544 26.984 24.056C27.4213 24.5573 27.64 25.1867 27.64 25.944C27.64 26.936 27.288 27.72 26.584 28.296C25.8907 28.8613 24.936 29.144 23.72 29.144Z" fill="white"/>
</svg>
