<svg width="184" height="72" viewBox="0 0 184 72" fill="none" xmlns="http://www.w3.org/2000/svg">
<path d="M20.3574 56.9063H12.4358V24.6804H0.498047V16.6169H32.2674V24.6804H20.3574V56.9063ZM44.593 18.6398C44.593 19.3515 44.4546 20.0165 44.1774 20.6346C43.9191 21.2527 43.5591 21.7959 43.0974 22.2642C42.6356 22.7137 42.0911 23.0789 41.4633 23.3599C40.8537 23.6221 40.1983 23.7532 39.4965 23.7532C38.795 23.7532 38.1301 23.6221 37.5023 23.3599C36.893 23.0789 36.3575 22.7137 35.8959 22.2642C35.4527 21.7959 35.0927 21.2527 34.8156 20.6346C34.5571 20.0165 34.4279 19.3515 34.4279 18.6398C34.4279 17.9468 34.5571 17.2912 34.8156 16.6731C35.0927 16.0362 35.4527 15.4931 35.8959 15.0435C36.3575 14.5752 36.893 14.21 37.5023 13.9478C38.1301 13.6668 38.795 13.5264 39.4965 13.5264C40.1983 13.5264 40.8537 13.6668 41.4633 13.9478C42.0911 14.21 42.6356 14.5752 43.0974 15.0435C43.5591 15.4931 43.9191 16.0362 44.1774 16.6731C44.4546 17.2912 44.593 17.9468 44.593 18.6398ZM43.2914 56.9063H35.6743V26.8157H43.2914V56.9063ZM75.0053 32.8001L69.4655 38.4473C69.1887 37.6606 68.8101 36.9582 68.3299 36.3401C67.85 35.7033 67.3054 35.1695 66.6958 34.7387C66.1051 34.3079 65.4588 33.9801 64.7569 33.7553C64.0554 33.5306 63.335 33.4182 62.5965 33.4182C61.5625 33.4182 60.5838 33.6336 59.6607 34.0644C58.7558 34.4952 57.9616 35.1039 57.2787 35.8906C56.6138 36.6586 56.0874 37.5764 55.6998 38.6442C55.3122 39.7117 55.1182 40.8917 55.1182 42.184C55.1182 43.2328 55.3122 44.2164 55.6998 45.1343C56.0874 46.0519 56.6138 46.8575 57.2787 47.5502C57.9616 48.2434 58.7558 48.7866 59.6607 49.1798C60.5838 49.5733 61.5625 49.7698 62.5965 49.7698C63.335 49.7698 64.046 49.667 64.7293 49.461C65.4127 49.255 66.0495 48.9646 66.6406 48.5898C67.2498 48.1966 67.7853 47.7282 68.247 47.185C68.7269 46.6231 69.1149 46.0051 69.4103 45.3307L74.9497 50.9781C74.2482 51.9897 73.4355 52.898 72.5124 53.7032C71.6074 54.5088 70.6197 55.1923 69.5487 55.7543C68.4962 56.3163 67.3791 56.7379 66.1974 57.0187C65.0341 57.3183 63.8338 57.4682 62.5965 57.4682C60.5101 57.4682 58.5436 57.0747 56.697 56.2883C54.869 55.4827 53.2625 54.3872 51.8777 53.0008C50.511 51.6149 49.4309 49.9945 48.6368 48.1402C47.843 46.2859 47.4459 44.3007 47.4459 42.184C47.4459 39.8801 47.843 37.7262 48.6368 35.722C49.4309 33.7179 50.511 31.9759 51.8777 30.4962C53.2625 28.9978 54.869 27.8177 56.697 26.9561C58.5436 26.0945 60.5101 25.6637 62.5965 25.6637C63.8338 25.6637 65.0432 25.8229 66.225 26.1414C67.4253 26.4598 68.5609 26.9281 69.6319 27.5462C70.7214 28.1455 71.7182 28.8854 72.6232 29.7657C73.5463 30.6461 74.3405 31.6575 75.0053 32.8001ZM86.3337 56.9063H78.7166V14.8468H86.3337V41.3693L97.6065 26.8719H106.304L96.4712 39.4025L106.304 56.9063H97.6065L91.5962 45.9771L86.3337 53.0572V56.9063ZM118.214 18.6398C118.214 19.3515 118.075 20.0165 117.798 20.6346C117.54 21.2527 117.18 21.7959 116.718 22.2642C116.257 22.7137 115.712 23.0789 115.084 23.3599C114.475 23.6221 113.819 23.7532 113.117 23.7532C112.416 23.7532 111.751 23.6221 111.123 23.3599C110.514 23.0789 109.978 22.7137 109.517 22.2642C109.074 21.7959 108.714 21.2527 108.436 20.6346C108.178 20.0165 108.049 19.3515 108.049 18.6398C108.049 17.9468 108.178 17.2912 108.436 16.6731C108.714 16.0362 109.074 15.4931 109.517 15.0435C109.978 14.5752 110.514 14.21 111.123 13.9478C111.751 13.6668 112.416 13.5264 113.117 13.5264C113.819 13.5264 114.475 13.6668 115.084 13.9478C115.712 14.21 116.257 14.5752 116.718 15.0435C117.18 15.4931 117.54 16.0362 117.798 16.6731C118.075 17.2912 118.214 17.9468 118.214 18.6398ZM116.912 56.9063H109.295V26.8157H116.912V56.9063ZM137.575 56.9063C135.747 56.9063 134.029 56.5599 132.423 55.8667C130.816 55.1551 129.404 54.1904 128.185 52.9728C126.985 51.7365 126.034 50.3037 125.332 48.6742C124.649 47.0447 124.307 45.3027 124.307 43.4484V34.5139H120.624V26.8719H124.307V14.8468H131.841V26.8719H143.308V34.5139H131.841V43.4484C131.841 44.2539 131.989 45.0123 132.284 45.7243C132.58 46.4171 132.986 47.0259 133.503 47.5502C134.02 48.075 134.629 48.4962 135.331 48.8146C136.033 49.1146 136.78 49.2642 137.575 49.2642H143.308V56.9063H137.575ZM170.729 56.9063H145.995L158.487 34.5139H145.995V26.8719H170.729L158.237 49.2642H170.729V56.9063Z" fill="#1D4ED8"/>
<path d="M180.671 33.6011C180.665 33.5977 180.659 33.5957 180.653 33.5927L178.179 32.1431C178.025 32.3211 177.815 32.4394 177.584 32.478C177.354 32.5165 177.118 32.4728 176.915 32.3544C176.713 32.2358 176.557 32.0498 176.475 31.8279C176.393 31.6061 176.389 31.3622 176.464 31.1377L173.973 29.6781C173.906 29.639 173.827 29.6285 173.752 29.6487C173.678 29.669 173.614 29.7184 173.575 29.7862L166.18 42.7795L166.18 42.7803C166.16 42.8137 166.148 42.8509 166.143 42.8893C166.138 42.928 166.141 42.9668 166.151 43.0043C166.16 43.0419 166.177 43.0768 166.201 43.1079C166.224 43.1386 166.253 43.1643 166.286 43.1839L168.778 44.6416C168.932 44.4639 169.142 44.3458 169.373 44.3071C169.603 44.2687 169.839 44.3124 170.042 44.4306C170.244 44.5491 170.399 44.7348 170.482 44.9561C170.565 45.1774 170.569 45.421 170.495 45.6454L172.954 47.0843C172.964 47.092 172.973 47.1001 172.984 47.1066C173.018 47.1261 173.054 47.1384 173.092 47.1438C173.13 47.1488 173.169 47.1461 173.205 47.1361C173.242 47.1261 173.277 47.1089 173.307 47.0851C173.338 47.0617 173.363 47.0322 173.382 46.9984V46.9988L180.778 34.0046C180.797 33.971 180.809 33.9339 180.814 33.8954C180.819 33.857 180.817 33.8179 180.807 33.7804C180.797 33.743 180.78 33.7079 180.757 33.6771C180.733 33.6463 180.704 33.6205 180.671 33.6011ZM178.551 34.6097L172.786 44.739C172.766 44.7727 172.741 44.8023 172.711 44.8257C172.68 44.8495 172.646 44.8667 172.609 44.8767C172.572 44.8867 172.533 44.8894 172.495 44.8844C172.458 44.8794 172.421 44.8667 172.388 44.8472L168.514 42.5782C168.48 42.5586 168.451 42.5329 168.428 42.5022C168.405 42.4715 168.388 42.4362 168.378 42.399C168.368 42.3614 168.366 42.3223 168.37 42.2839C168.376 42.2456 168.388 42.2084 168.407 42.175L174.172 32.0456C174.211 31.9779 174.274 31.9284 174.349 31.9082C174.423 31.8879 174.503 31.8985 174.57 31.9376L178.444 34.2068C178.477 34.2261 178.506 34.2519 178.53 34.2826C178.553 34.3134 178.57 34.3484 178.58 34.3859C178.59 34.4233 178.592 34.4623 178.587 34.5008C178.582 34.5392 178.57 34.5762 178.551 34.6097Z" fill="#5F2EEA"/>
<path d="M175.445 38.1215L174.218 37.89L174.046 36.6999C174.043 36.6824 174.035 36.666 174.023 36.6533C174.011 36.6405 173.995 36.6318 173.978 36.6285C173.96 36.6251 173.943 36.6273 173.927 36.6347C173.911 36.642 173.898 36.6542 173.889 36.6696L173.294 37.7152L172.097 37.4895C172.08 37.4863 172.062 37.4886 172.046 37.496C172.03 37.5034 172.017 37.5155 172.008 37.5309C172 37.5462 171.996 37.5638 171.997 37.5815C171.999 37.5991 172.006 37.6158 172.017 37.6293L172.809 38.568L172.213 39.6133C172.204 39.629 172.2 39.6467 172.202 39.6643C172.204 39.6823 172.211 39.6992 172.222 39.7126C172.234 39.7261 172.249 39.7353 172.266 39.7395C172.283 39.7437 172.301 39.7426 172.317 39.736L173.419 39.2926L174.231 40.2551C174.242 40.2681 174.257 40.2777 174.274 40.2819C174.291 40.2861 174.309 40.285 174.325 40.2788C174.341 40.2727 174.355 40.2616 174.365 40.247C174.375 40.2324 174.38 40.2152 174.379 40.1975L174.358 38.9071L175.471 38.2803C175.486 38.2716 175.498 38.2584 175.506 38.2425C175.514 38.2266 175.516 38.2088 175.514 38.1914C175.511 38.1741 175.502 38.1581 175.49 38.1456C175.478 38.1331 175.462 38.1247 175.445 38.1215Z" fill="#5F2EEA"/>
</svg>
